# xmcd
#
# Track frame offsets:
# 150
# 18438
# 33699
# 48382
# 65555
# 77189
# 98032
# 121248
# 136881
# 155935
# 184692
# 203108
# 214069
# 242482
# 266894
# 293903
# 317574
#
# Disc length: 4536 seconds
#
# Revision: 0
# Processed by: cddbd v1.5.2PL0 Copyright (c) Steve Scherf et al.
# Submitted via: Audion 3.0.2 (http://www.panic.com/audion/)
#
DISCID=fb11b611
DTITLE=Elton John - The Songs Of Elton John and Bernie Taupin-Disc 1
DYEAR=1900
DGENRE=
TTITLE0=Your Song
TTITLE1=Border Song
TTITLE2=Bad Side Of The Moon
TTITLE3=Take Me To The Pilot
TTITLE4=I Need You To Turn To
TTITLE5=Sixty Years On
TTITLE6=Country Comfort
TTITLE7=Come Down In Time
TTITLE8=Where To Now St. Peter?
TTITLE9=Burn Down The Mission
TTITLE10=Into The Old Man's Shoes
TTITLE11=Friends
TTITLE12=Tiny Dancer
TTITLE13=Levon
TTITLE14=Madman Across The Water
TTITLE15=Honky Cat
TTITLE16=Mona Lisas and Mad Hatters
EXTD=
EXTT0=
EXTT1=
EXTT2=
EXTT3=
EXTT4=
EXTT5=
EXTT6=
EXTT7=
EXTT8=
EXTT9=
EXTT10=
EXTT11=
EXTT12=
EXTT13=
EXTT14=
EXTT15=
EXTT16=
PLAYORDER=
